<?xml version="1.0" encoding="utf-8"?>
<!-- Generator: Adobe Illustrator 23.0.2, SVG Export Plug-In . SVG Version: 6.00 Build 0)  -->
<svg version="1.1" id="Camada_1" focusable="false" xmlns="http://www.w3.org/2000/svg" xmlns:xlink="http://www.w3.org/1999/xlink"
	 x="0px" y="0px" viewBox="0 0 448 497.8" style="enable-background:new 0 0 448 497.8;" xml:space="preserve">
<style type="text/css">
	.st0{fill:#222222;}
</style>
<g>
	<path class="st0" d="M448,101.3c0-0.6,0-1.3,0-1.9c-0.6-25.1-17.9-45-42.7-48.9c-9.4-1.5-18.9-0.5-28.3-0.5c-2.9,0-3.7-0.8-3.7-3.7
		c0.1-14.1,0-28.3,0.1-42.4c0-3.2-1-3.9-3.9-3.8c-14,0.1-28,0.2-42,0c-3.4,0-4,1-4,4.2c0.2,13.9,0,27.7,0.1,41.6
		c0,3.1-0.6,4.2-4,4.2c-63.8-0.1-127.5-0.1-191.3,0c-3.4,0-4-1.1-4-4.2c0.2-13.9,0-27.7,0.1-41.6c0-3.1-0.7-4.2-4-4.2
		c-14,0.2-28,0.2-42,0c-3,0-4,0.7-3.9,3.8c0.2,14,0,28,0.2,42c0,3.2-0.8,4.1-4.1,4.1c-8.9-0.1-18-0.8-26.8,0.4
		c-26.5,3.5-43.7,23.9-43.7,51C0.1,216.4,0.1,331.5,0,446.6c0,4.2,0.3,8.3,1.3,12.3c5.4,23.2,24.9,38.9,48.9,38.9
		c57.9,0.1,115.9,0,173.8,0c57.5,0,115.1,0,172.6,0c7.8,0,15.3-1.2,22.2-4.7c19.1-9.4,29.1-25,29.1-46.2
		C448,331.7,448,216.5,448,101.3z M393.4,448.1c-56.5-0.1-113-0.1-169.5-0.1s-113,0-169.5,0.1c-3.9,0-4.6-1.1-4.6-4.7
		c0.1-88.1,0.1-176.3,0-264.4c0-4.1,1.2-4.8,4.9-4.8c112.9,0.1,225.8,0.1,338.7,0.1c5.6,0,4.9-0.7,4.9,5c0,88,0,176,0.1,264
		C398.3,447.4,397.1,448.1,393.4,448.1z"/>
	<path class="st0" d="M145.8,224c-7,0.2-14,0.1-21,0.1c-7.3,0-14.5,0.1-21.8-0.1c-2.6-0.1-3.6,0.6-3.6,3.4c0.1,14.4,0.1,28.8,0,43.1
		c0,2.9,1,3.4,3.6,3.4c14.2-0.1,28.5-0.1,42.7,0c2.6,0,3.6-0.6,3.6-3.4c-0.1-14.4-0.1-28.8,0-43.1C149.4,224.5,148.4,224,145.8,224z
		"/>
	<path class="st0" d="M248.9,227.4c0-2.8-1-3.4-3.6-3.4c-7,0.2-14,0.1-21,0.1c-7.3,0-14.5,0.1-21.8-0.1c-2.6-0.1-3.6,0.5-3.6,3.4
		c0.1,14.4,0.1,28.8,0,43.1c0,2.8,1,3.4,3.6,3.4c14.2-0.1,28.5-0.1,42.7,0c2.6,0,3.6-0.5,3.6-3.4
		C248.8,256.1,248.8,241.8,248.9,227.4z"/>
	<path class="st0" d="M345.1,224c-14.4,0.1-28.8,0.1-43.1,0c-2.9,0-3.4,1-3.4,3.6c0.2,7.1,0.1,14.2,0.1,21.4
		c0,7.1,0.1,14.2-0.1,21.4c-0.1,2.6,0.5,3.6,3.4,3.6c14.4-0.1,28.8-0.1,43.1,0c2.9,0,3.4-1,3.4-3.6c-0.1-14.2-0.1-28.5,0-42.7
		C348.5,225,347.9,224,345.1,224z"/>
</g>
</svg>
