<?xml version="1.0" encoding="utf-8"?>
<!-- Generator: Adobe Illustrator 23.0.2, SVG Export Plug-In . SVG Version: 6.00 Build 0)  -->
<svg version="1.1" id="Camada_1" focusable="false" xmlns="http://www.w3.org/2000/svg" xmlns:xlink="http://www.w3.org/1999/xlink"
	 x="0px" y="0px" viewBox="0 0 305.8 502.8" style="enable-background:new 0 0 305.8 502.8;" xml:space="preserve">
<g>
	<path d="M87.4,131c0-21.7-0.2-43.4,0-65.2c0.2-25.4,11.8-44.8,33.6-57c22.2-12.4,45.1-11.6,66.8,1.9c17.9,11.2,27.9,27.9,30,49.1
		c0.4,4.3,0.5,8.6,0.5,12.9c0,41.1,0,82.1-0.1,123.2c0,13.6-3.6,26.3-11.2,37.7c-22,32.9-68.6,38.8-97.9,12.2
		c-14.5-13.1-21.7-29.5-21.8-49C87.3,174.9,87.4,153,87.4,131z"/>
	<path d="M131.1,379.6c0-10.8-0.1-21.6,0-32.4c0-2.6-1-3.6-3.4-4c-29.7-5-55.6-18-78-38c-23.8-21.4-39.5-47.6-46.5-78.9
		c-1.9-8.5-2.8-17-3.1-25.7c-0.1-2.7,0.9-3.6,3.5-3.6c9.2,0.1,18.4,0,27.6,0c6.1,0,6.1,0,6.3,6c0.4,11.2,2.6,22.1,6.7,32.6
		c11.5,29.7,32.4,50.6,61.4,63c33.8,14.5,67.9,13.5,100.6-2.9c35.9-18,57.2-47.3,62-87.7c0.3-2.6,0.3-5.2,0.4-7.8
		c0.1-2.2,1.1-3.2,3.4-3.2c10.2,0.1,20.5,0.1,30.7,0c3.1,0,3.2,1.8,3.1,4c-0.7,20.8-5.6,40.5-15.1,59c-16.4,32.1-41.1,55.7-73.8,71
		c-12.3,5.8-25.2,9.8-38.6,12.1c-2.9,0.5-3.6,1.9-3.6,4.6c0.1,20.9,0,41.8,0,62.8c0,4.9,0,4.9-4.9,4.9c-11.6,0-23.2-0.1-34.8,0.1
		c-3.2,0-4.1-1.1-4.1-4.2C131.1,400.8,131.1,390.2,131.1,379.6z"/>
	<path d="M65.3,502.8c-6,0-12.1-0.1-18.1,0c-2.7,0.1-3.6-1-3.5-3.6c0.1-12.2,0.1-24.3,0-36.5c0-2.6,0.8-3.6,3.5-3.6
		c12.3,0.1,24.6,0.1,36.9,0c2.5,0,3.4,1,3.4,3.4c-0.1,12.3-0.1,24.6,0,36.9c0,2.8-1.2,3.5-3.7,3.4C77.6,502.7,71.4,502.8,65.3,502.8
		z"/>
	<path d="M131.1,480.7c0-6,0.1-12.1,0-18.1c-0.1-2.7,1-3.6,3.6-3.5c12.2,0.1,24.3,0.1,36.5,0c2.6,0,3.6,0.8,3.6,3.5
		c-0.1,12.3-0.1,24.6,0,36.9c0,2.5-1,3.4-3.4,3.4c-12.3-0.1-24.6-0.1-36.9,0c-2.8,0-3.5-1.2-3.4-3.7
		C131.1,493,131.1,486.8,131.1,480.7z"/>
	<path d="M240,502.8c-6,0-12.1-0.1-18.1,0c-2.7,0.1-3.6-1-3.5-3.6c0.1-12.2,0.1-24.3,0-36.5c0-2.6,0.8-3.6,3.5-3.6
		c12.3,0.1,24.6,0.1,36.9,0c2.5,0,3.4,1,3.4,3.4c-0.1,12.3-0.1,24.6,0,36.9c0,2.8-1.2,3.5-3.7,3.4
		C252.3,502.7,246.2,502.8,240,502.8z"/>
</g>
</svg>
